<svg width="382" height="107" viewBox="0 0 382 107" fill="none" xmlns="http://www.w3.org/2000/svg">
<path d="M57 11.3C56.9 11.4 56.75 11.65 56.55 12.05C56.45 12.45 56.4 13.15 56.4 14.15C56.4 15.55 56.6 16.9 57 18.2V67.85C57 72.95 56.5 77.85 55.5 82.55C54.5 87.25 52.75 91.45 50.25 95.15C47.85 98.75 44.5 101.6 40.2 103.7C36 105.9 30.6 107 24 107H22.05C16.35 107 11.7 106.2 8.1 104.6C4.6 103.1 1.85 101.15 -0.15 98.75C-2.15 96.35 -3.5 93.75 -4.2 90.95C-4.9 88.05 -5.25 85.3 -5.25 82.7C-5.25 80.5 -4.95 78.4 -4.35 76.4C-3.85 74.3 -3.05 72.5 -1.95 71C-0.95 69.4 0.3 68.15 1.8 67.25C3.3 66.25 5 65.75 6.9 65.75C8.7 65.75 9.85 66.25 10.35 67.25C10.85 68.15 11.1 69.1 11.1 70.1C11.1 72.3 10.65 74.15 9.75 75.65C8.85 77.05 7.85 78.3 6.75 79.4C5.75 80.5 4.8 81.6 3.9 82.7C3 83.8 2.55 85.15 2.55 86.75C2.55 91.55 4.15 95 7.35 97.1C10.55 99.2 14.55 100.25 19.35 100.25C23.55 100.25 27.2 99.4 30.3 97.7C33.4 96 35.95 93.85 37.95 91.25C40.05 88.65 41.6 85.85 42.6 82.85C43.6 79.75 44.1 76.85 44.1 74.15L41.85 74.3C38.25 74.3 35.1 73.5 32.4 71.9C29.8 70.2 27.6 68.1 25.8 65.6C24.1 63.1 22.8 60.4 21.9 57.5C21.1 54.6 20.7 51.9 20.7 49.4V44.15C20.7 42.25 20.95 40.05 21.45 37.55C21.95 34.95 22.65 32.3 23.55 29.6C24.45 26.8 25.55 24.1 26.85 21.5C28.15 18.8 29.55 16.4 31.05 14.3C32.55 12.2 34.15 10.5 35.85 9.19999C37.55 7.9 39.3 7.25 41.1 7.25C41.8 7.25 42.6 7.4 43.5 7.69999L54 8.44999C54.7 8.54999 55.35 8.79999 55.95 9.19999C56.65 9.59999 57 10.3 57 11.3ZM44.1 29.3C44.3 28.5 44.5 27.75 44.7 27.05C44.9 26.35 45 25.55 45 24.65C45 23.35 44.65 22.2 43.95 21.2C43.35 20.1 42.2 19.55 40.5 19.55C38.3 19.55 36.5 20.45 35.1 22.25C33.7 24.05 32.6 26.2 31.8 28.7C31.1 31.2 30.6 33.8 30.3 36.5C30 39.2 29.85 41.4 29.85 43.1C29.85 44.4 29.95 46.3 30.15 48.8C30.35 51.2 30.8 53.6 31.5 56C32.3 58.4 33.35 60.5 34.65 62.3C36.05 64.1 37.9 65 40.2 65C40.4 65 40.95 64.95 41.85 64.85C42.85 64.75 43.6 64.6 44.1 64.4V29.3ZM91.4145 68.3C89.9145 70.4 88.6645 72.75 87.6645 75.35C86.7645 77.85 85.9645 80.5 85.2645 83.3C84.5645 86 83.9645 88.75 83.4645 91.55C83.0645 94.25 82.6145 96.85 82.1145 99.35C81.9145 99.95 81.1145 100.35 79.7145 100.55C78.4145 100.75 77.4645 100.85 76.8645 100.85C75.0645 100.85 73.5645 100.75 72.3645 100.55C71.2645 100.35 70.4145 99.9 69.8145 99.2C69.2145 98.4 68.7645 97.25 68.4645 95.75C68.1645 94.15 67.9145 92.05 67.7145 89.45L69.6645 44.9C69.6645 43.6 70.3645 42.95 71.7645 42.95C72.2645 42.95 72.9645 43.05 73.8645 43.25C74.7645 43.35 75.7145 43.55 76.7145 43.85C77.7145 44.15 78.5645 44.55 79.2645 45.05C79.9645 45.45 80.3145 45.95 80.3145 46.55V77C80.4145 76.9 80.5645 76.5 80.7645 75.8C81.4645 74 82.3145 71.8 83.3145 69.2C84.3145 66.5 85.4145 63.95 86.6145 61.55C87.8145 59.15 89.0645 57.1 90.3645 55.4C91.7645 53.7 93.1645 52.85 94.5645 52.85C96.3645 52.85 97.7145 53.3 98.6145 54.2C99.6145 55 100.364 56.05 100.864 57.35C101.364 58.65 101.664 60.05 101.764 61.55C101.864 63.05 101.914 64.5 101.914 65.9C101.914 66.9 101.814 68.55 101.614 70.85C101.414 73.15 101.314 76.6 101.314 81.2C101.314 83.8 101.564 86.15 102.064 88.25C102.564 90.35 103.564 91.4 105.064 91.4C106.164 91.4 107.164 90.9 108.064 89.9C108.964 88.9 109.764 87.65 110.464 86.15C111.264 84.65 111.914 83.05 112.414 81.35C112.914 79.65 113.214 78.05 113.314 76.55C113.414 74.65 114.164 73.7 115.564 73.7C116.464 73.7 117.064 74 117.364 74.6C117.664 75.2 117.814 75.9 117.814 76.7V77C117.714 79 117.314 81.25 116.614 83.75C116.014 86.25 115.064 88.6 113.764 90.8C112.564 93 110.964 94.85 108.964 96.35C106.964 97.85 104.514 98.6 101.614 98.6C97.1145 98.6 94.2145 97 92.9145 93.8C91.7145 90.5 91.1145 85.65 91.1145 79.25L91.4145 68.3ZM149.868 91.7C149.868 94.1 149.068 95.95 147.468 97.25C145.868 98.55 144.018 99.5 141.918 100.1C139.918 100.7 137.868 101.05 135.768 101.15C133.768 101.35 132.318 101.45 131.418 101.45C130.018 101.45 128.268 101.3 126.168 101C124.168 100.7 122.168 100.25 120.168 99.65C118.268 98.95 116.618 98 115.218 96.8C113.918 95.6 113.268 94.1 113.268 92.3C113.268 91.2 113.668 90.45 114.468 90.05C115.368 89.55 116.218 89.3 117.018 89.3C118.118 89.3 119.168 89.7 120.168 90.5C121.268 91.3 122.368 92.15 123.468 93.05C124.668 93.95 125.968 94.8 127.368 95.6C128.768 96.4 130.368 96.8 132.168 96.8C132.968 96.8 134.018 96.55 135.318 96.05C136.718 95.45 137.418 94.45 137.418 93.05C137.418 91.65 136.818 90.3 135.618 89C134.518 87.7 133.068 86.35 131.268 84.95C129.568 83.55 127.718 82.1 125.718 80.6C123.718 79.1 121.818 77.5 120.018 75.8C118.318 74 116.868 72.05 115.668 69.95C114.568 67.85 114.018 65.55 114.018 63.05C114.018 59.55 115.118 56.6 117.318 54.2C119.618 51.8 122.268 49.9 125.268 48.5C128.368 47.1 131.518 46.1 134.718 45.5C137.918 44.9 140.418 44.6 142.218 44.6C143.918 44.6 145.618 44.95 147.318 45.65C149.018 46.35 149.868 47.7 149.868 49.7C149.868 50.3 149.718 51.2 149.418 52.4C149.218 53.5 148.818 54.6 148.218 55.7C147.718 56.8 147.018 57.8 146.118 58.7C145.218 59.5 144.068 59.9 142.668 59.9C142.268 59.9 141.868 59.75 141.468 59.45C141.068 59.05 140.618 58.65 140.118 58.25C139.618 57.75 139.068 57.35 138.468 57.05C137.968 56.65 137.368 56.45 136.668 56.45C133.168 56.45 130.718 57.5 129.318 59.6C127.918 61.6 127.218 63.75 127.218 66.05C127.218 68.05 128.368 70.15 130.668 72.35C133.068 74.55 135.668 76.75 138.468 78.95C141.368 81.15 143.968 83.35 146.268 85.55C148.668 87.65 149.868 89.7 149.868 91.7ZM153.098 73.85C153.198 68.75 153.348 63.55 153.548 58.25C153.748 52.95 153.948 48.05 154.148 43.55C154.148 42.75 153.348 42.2 151.748 41.9C150.148 41.6 148.348 41.3 146.348 41C144.348 40.7 142.548 40.25 140.948 39.65C139.348 38.95 138.548 37.85 138.548 36.35C138.548 35.05 139.848 34.3 142.448 34.1C145.048 33.9 148.898 33.8 153.998 33.8C154.398 33.8 154.648 33.2 154.748 32C154.948 30.8 155.048 29.3 155.048 27.5C155.148 25.6 155.198 23.6 155.198 21.5C155.298 19.4 155.398 17.45 155.498 15.65C155.598 13.75 155.748 12.2 155.948 11C156.248 9.79999 156.598 9.19999 156.998 9.19999C157.498 9.19999 158.398 9.29999 159.698 9.5C160.998 9.7 162.348 9.99999 163.748 10.4C165.148 10.7 166.348 11.1 167.348 11.6C168.448 12.1 168.998 12.65 168.998 13.25L167.348 32.75C167.348 33.35 167.848 33.8 168.848 34.1C169.948 34.3 171.298 34.45 172.898 34.55C174.598 34.55 176.348 34.55 178.148 34.55C180.048 34.55 181.798 34.7 183.398 35C185.098 35.3 186.448 35.8 187.448 36.5C188.548 37.1 189.098 38.05 189.098 39.35C189.098 39.55 188.998 39.9 188.798 40.4C188.598 40.8 188.348 41 188.048 41C187.848 41 187.548 40.85 187.148 40.55C186.848 40.25 185.948 40.1 184.448 40.1C184.048 40.1 182.948 40.15 181.148 40.25C179.348 40.35 177.448 40.5 175.448 40.7C173.448 40.9 171.598 41.15 169.898 41.45C168.298 41.65 167.398 41.95 167.198 42.35C167.098 42.55 166.948 43.75 166.748 45.95C166.648 48.05 166.498 50.85 166.298 54.35C166.198 57.85 166.098 61.9 165.998 66.5C165.898 71 165.848 75.75 165.848 80.75C165.848 82.65 165.948 84.5 166.148 86.3C166.348 88.1 166.648 89.75 167.048 91.25C167.448 92.65 167.948 93.8 168.548 94.7C169.248 95.6 170.048 96.05 170.948 96.05C172.248 96.05 173.448 95.5 174.548 94.4C175.648 93.3 176.648 91.8 177.548 89.9C178.448 88 179.248 85.85 179.948 83.45C180.648 81.05 181.248 78.6 181.748 76.1C182.048 74.6 182.398 73.55 182.798 72.95C183.198 72.25 183.798 71.9 184.598 71.9C185.298 71.9 185.898 72.15 186.398 72.65C186.998 73.05 187.298 74.05 187.298 75.65C187.298 76.65 187.248 77.3 187.148 77.6C186.848 79.4 186.248 81.9 185.348 85.1C184.548 88.2 183.398 91.3 181.898 94.4C180.498 97.4 178.748 100.05 176.648 102.35C174.548 104.65 172.098 105.8 169.298 105.8C166.598 105.8 164.248 105 162.248 103.4C160.248 101.9 158.548 99.8 157.148 97.1C155.848 94.3 154.848 91.05 154.148 87.35C153.448 83.55 153.098 79.5 153.098 75.2V73.85ZM242.112 84.65C241.912 86.05 241.412 87.7 240.612 89.6C239.812 91.5 238.762 93.35 237.462 95.15C236.262 96.85 234.812 98.3 233.112 99.5C231.512 100.7 229.712 101.3 227.712 101.3C224.712 101.3 222.062 100.15 219.762 97.85C217.562 95.55 216.212 92.3 215.712 88.1C215.112 89.7 214.412 91.55 213.612 93.65C212.812 95.75 211.812 97.7 210.612 99.5C209.412 101.3 208.012 102.8 206.412 104C204.912 105.3 203.112 105.95 201.012 105.95C200.412 105.95 199.962 105.9 199.662 105.8C199.362 105.7 199.012 105.55 198.612 105.35C198.312 105.25 197.912 105.15 197.412 105.05C197.012 104.95 196.412 104.9 195.612 104.9C193.212 104.9 191.162 104.1 189.462 102.5C187.862 101 186.562 99.05 185.562 96.65C184.562 94.25 183.812 91.65 183.312 88.85C182.912 85.95 182.712 83.25 182.712 80.75C182.712 74.75 183.012 69.05 183.612 63.65C184.312 58.25 185.412 53.5 186.912 49.4C188.412 45.2 190.362 41.9 192.762 39.5C195.162 37 198.062 35.75 201.462 35.75C203.462 35.75 204.962 35.95 205.962 36.35C207.062 36.65 208.062 37.05 208.962 37.55C209.862 37.95 210.812 38.4 211.812 38.9C212.912 39.4 214.412 39.8 216.312 40.1C218.412 41.3 219.862 42.75 220.662 44.45C221.562 46.05 222.112 47.8 222.312 49.7C222.612 51.6 222.712 53.6 222.612 55.7C222.512 57.7 222.612 59.7 222.912 61.7C222.912 61.8 223.112 61.95 223.512 62.15C224.012 62.35 224.562 62.6 225.162 62.9C225.762 63.1 226.262 63.45 226.662 63.95C227.162 64.35 227.412 64.9 227.412 65.6V66.2C226.412 68.8 225.812 71.1 225.612 73.1C225.412 75.1 225.312 77.5 225.312 80.3C225.312 81.7 225.362 83.25 225.462 84.95C225.662 86.55 225.912 88.1 226.212 89.6C226.612 91 227.162 92.2 227.862 93.2C228.562 94.1 229.462 94.55 230.562 94.55C231.762 94.55 232.812 93.95 233.712 92.75C234.712 91.55 235.512 90.2 236.112 88.7C236.812 87.1 237.362 85.5 237.762 83.9C238.262 82.3 238.562 81.1 238.662 80.3C238.862 79.1 239.362 78.5 240.162 78.5C240.662 78.5 241.112 78.8 241.512 79.4C242.012 79.9 242.262 80.85 242.262 82.25C242.262 82.65 242.262 83.05 242.262 83.45C242.262 83.75 242.212 84.15 242.112 84.65ZM214.362 60.35C214.362 59.25 214.262 57.95 214.062 56.45C213.862 54.95 213.512 53.55 213.012 52.25C212.512 50.95 211.762 49.85 210.762 48.95C209.762 48.05 208.412 47.6 206.712 47.6C203.912 47.6 201.612 48.9 199.812 51.5C198.112 54 196.762 57 195.762 60.5C194.762 63.9 194.112 67.45 193.812 71.15C193.512 74.75 193.362 77.6 193.362 79.7C193.362 81.3 193.412 83.25 193.512 85.55C193.712 87.75 194.012 89.85 194.412 91.85C194.812 93.85 195.362 95.55 196.062 96.95C196.862 98.35 197.862 99.05 199.062 99.05C201.962 99.05 204.162 97.95 205.662 95.75C207.262 93.45 208.462 90.65 209.262 87.35C210.062 83.95 210.612 80.35 210.912 76.55C211.312 72.65 211.662 69.1 211.962 65.9C212.162 64.2 212.612 63.15 213.312 62.75C214.012 62.25 214.362 61.9 214.362 61.7V60.35ZM298.854 75.35C298.654 77.55 298.204 80.05 297.504 82.85C296.904 85.65 295.954 88.3 294.654 90.8C293.454 93.3 291.804 95.4 289.704 97.1C287.704 98.8 285.254 99.65 282.354 99.65C278.054 99.65 274.904 98.65 272.904 96.65C271.004 94.65 269.404 91.55 268.104 87.35L267.954 88.1C267.554 89.7 267.054 91.45 266.454 93.35C265.954 95.25 265.204 97 264.204 98.6C263.304 100.1 262.154 101.35 260.754 102.35C259.354 103.45 257.554 104 255.354 104C253.854 104 252.354 103.7 250.854 103.1C249.454 102.6 247.954 101.95 246.354 101.15C244.054 99.95 242.254 98.35 240.954 96.35C239.654 94.35 238.704 92.3 238.104 90.2C237.504 88.1 237.154 86.1 237.054 84.2C236.954 82.2 236.904 80.65 236.904 79.55V77C236.904 76.4 237.054 75.1 237.354 73.1C237.654 71.1 238.104 68.8 238.704 66.2C239.404 63.5 240.204 60.7 241.104 57.8C242.104 54.9 243.254 52.25 244.554 49.85C245.954 47.45 247.504 45.45 249.204 43.85C251.004 42.25 253.004 41.45 255.204 41.45C257.604 41.45 259.904 41.85 262.104 42.65C264.404 43.45 266.054 44.05 267.054 44.45C267.154 42.65 267.204 40.45 267.204 37.85C267.304 35.25 267.354 32.7 267.354 30.2C267.454 27.6 267.504 25.2 267.504 23C267.504 20.8 267.504 19.15 267.504 18.05C267.504 15.45 267.454 13.25 267.354 11.45C267.254 9.54999 267.054 7.94999 266.754 6.65C266.554 5.35 266.304 4.3 266.004 3.49999C265.704 2.69999 265.354 1.99999 264.954 1.39999C266.654 0.899995 268.304 0.549997 269.904 0.349999C271.604 0.149996 273.154 0.0499943 274.554 0.0499943C276.854 0.0499943 278.604 0.249995 279.804 0.649996C281.104 0.949998 281.754 1.8 281.754 3.2C281.754 3.8 281.604 5.55 281.304 8.44999C281.004 11.35 280.704 15.15 280.404 19.85C280.104 24.45 279.804 29.8 279.504 35.9C279.204 42 279.054 48.5 279.054 55.4V70.55C279.054 73.35 279.104 76.05 279.204 78.65C279.304 81.15 279.504 83.4 279.804 85.4C280.204 87.3 280.754 88.85 281.454 90.05C282.154 91.15 283.154 91.7 284.454 91.7C287.354 91.7 289.504 90.05 290.904 86.75C292.404 83.35 293.604 78.05 294.504 70.85C294.604 70.05 294.804 69.35 295.104 68.75C295.404 68.15 296.054 67.85 297.054 67.85C297.954 67.85 298.504 68.45 298.704 69.65C299.004 70.75 299.104 71.85 299.004 72.95L298.854 75.35ZM267.204 53.6C267.204 53.3 266.954 52.95 266.454 52.55C266.054 52.15 265.504 51.75 264.804 51.35C264.204 50.95 263.554 50.6 262.854 50.3C262.154 50 261.554 49.85 261.054 49.85C259.054 49.85 257.254 51.1 255.654 53.6C254.154 56 252.854 59 251.754 62.6C250.754 66.2 250.004 70.05 249.504 74.15C249.004 78.25 248.754 81.9 248.754 85.1C248.754 86.3 248.804 87.7 248.904 89.3C249.004 90.9 249.254 92.4 249.654 93.8C250.054 95.2 250.604 96.4 251.304 97.4C252.004 98.4 252.954 98.9 254.154 98.9C255.454 98.9 256.654 98.15 257.754 96.65C258.854 95.15 259.854 93.2 260.754 90.8C261.654 88.4 262.454 85.7 263.154 82.7C263.954 79.7 264.604 76.75 265.104 73.85C265.704 70.85 266.154 68.05 266.454 65.45C266.754 62.75 266.954 60.6 267.054 59L267.204 53.6ZM338.004 77.9C338.004 80.4 337.554 83.2 336.654 86.3C335.754 89.4 334.354 92.3 332.454 95C330.554 97.6 328.104 99.8 325.104 101.6C322.204 103.4 318.704 104.3 314.604 104.3C310.704 104.3 307.404 103.6 304.704 102.2C302.004 100.8 299.754 98.9 297.954 96.5C296.254 94.1 295.004 91.3 294.204 88.1C293.504 84.8 293.154 81.35 293.154 77.75C293.154 74.25 293.554 70.4 294.354 66.2C295.154 62 296.404 58.1 298.104 54.5C299.804 50.8 301.954 47.75 304.554 45.35C307.154 42.85 310.304 41.6 314.004 41.6C315.804 41.6 317.504 42 319.104 42.8C320.704 43.5 322.104 44.45 323.304 45.65C324.504 46.85 325.454 48.25 326.154 49.85C326.854 51.45 327.254 53.1 327.354 54.8L327.504 56.9C327.504 59.3 327.104 61.95 326.304 64.85C325.504 67.65 324.354 70.3 322.854 72.8C321.354 75.2 319.504 77.25 317.304 78.95C315.104 80.55 312.604 81.35 309.804 81.35C309.304 81.35 308.654 81.3 307.854 81.2C307.154 81.1 306.454 80.95 305.754 80.75V85.1C305.754 85.8 305.954 86.8 306.354 88.1C306.854 89.4 307.554 90.7 308.454 92C309.354 93.2 310.504 94.3 311.904 95.3C313.404 96.2 315.204 96.65 317.304 96.65C320.204 96.65 322.554 96.1 324.354 95C326.254 93.8 327.804 92.3 329.004 90.5C330.204 88.7 331.104 86.7 331.704 84.5C332.404 82.2 332.954 80 333.354 77.9C333.654 76.5 333.954 75.55 334.254 75.05C334.554 74.55 335.054 74.3 335.754 74.3C337.254 74.3 338.004 75.15 338.004 76.85V77.9ZM320.304 54.65C320.304 53.85 320.054 53 319.554 52.1C319.154 51.2 318.354 50.75 317.154 50.75C315.354 50.75 313.804 51.7 312.504 53.6C311.204 55.5 310.104 57.7 309.204 60.2C308.404 62.6 307.804 64.95 307.404 67.25C307.004 69.45 306.804 70.9 306.804 71.6V72.05C306.804 72.95 306.854 73.7 306.954 74.3C307.154 74.8 307.704 75.05 308.604 75.05H309.354C311.354 75.05 313.054 74.3 314.454 72.8C315.854 71.3 316.954 69.5 317.754 67.4C318.654 65.3 319.304 63.15 319.704 60.95C320.104 58.75 320.304 56.95 320.304 55.55V54.65ZM381.284 68.45C381.284 69.95 380.984 71.1 380.384 71.9C379.884 72.7 379.184 73.3 378.284 73.7C377.384 74.1 376.334 74.4 375.134 74.6C374.034 74.7 372.934 74.8 371.834 74.9V75.65C371.834 77.75 371.534 80.4 370.934 83.6C370.334 86.8 369.434 89.9 368.234 92.9C367.134 95.9 365.684 98.5 363.884 100.7C362.184 102.9 360.134 104.1 357.734 104.3C357.234 104.4 356.734 104.45 356.234 104.45C355.734 104.45 355.234 104.45 354.734 104.45C349.934 104.45 346.184 103.3 343.484 101C340.784 98.8 338.784 96 337.484 92.6C336.184 89.1 335.384 85.3 335.084 81.2C334.784 77.1 334.634 73.2 334.634 69.5C334.634 61 335.484 52.35 337.184 43.55C338.284 43.45 339.284 43.3 340.184 43.1C341.084 42.8 342.084 42.65 343.184 42.65C343.384 42.65 343.834 42.65 344.534 42.65C345.234 42.65 345.934 42.7 346.634 42.8C347.434 42.9 348.134 43.05 348.734 43.25C349.334 43.45 349.634 43.7 349.634 44C349.634 44.5 349.584 45.2 349.484 46.1C349.384 46.9 349.234 47.8 349.034 48.8C348.934 49.7 348.784 50.6 348.584 51.5C348.484 52.4 348.384 53.15 348.284 53.75C347.784 57.25 347.384 60.8 347.084 64.4C346.784 68 346.634 71.6 346.634 75.2C346.634 76.6 346.734 78.55 346.934 81.05C347.134 83.45 347.534 85.85 348.134 88.25C348.734 90.65 349.584 92.75 350.684 94.55C351.884 96.25 353.434 97.1 355.334 97.1C357.134 97.1 358.584 96.2 359.684 94.4C360.784 92.5 361.634 90.35 362.234 87.95C362.834 85.45 363.234 83 363.434 80.6C363.634 78.1 363.734 76.2 363.734 74.9C363.734 74.4 363.384 73.85 362.684 73.25C362.084 72.65 361.334 71.85 360.434 70.85C359.634 69.85 358.834 68.65 358.034 67.25C357.334 65.85 356.884 64.15 356.684 62.15V59C356.684 58.2 356.684 57.25 356.684 56.15C356.784 55.05 356.884 53.95 356.984 52.85C357.184 51.65 357.384 50.55 357.584 49.55C357.884 48.45 358.234 47.6 358.634 47C358.634 46.9 358.784 46.75 359.084 46.55C359.484 46.35 359.884 46.15 360.284 45.95C360.684 45.75 361.084 45.6 361.484 45.5C361.884 45.3 362.134 45.2 362.234 45.2C362.534 45.2 362.934 45.25 363.434 45.35C364.034 45.45 364.634 45.55 365.234 45.65C365.934 45.75 366.534 45.9 367.034 46.1C367.634 46.2 368.034 46.3 368.234 46.4C368.734 46.7 369.034 47.2 369.134 47.9C369.234 48.5 369.384 49 369.584 49.4C370.084 51 370.434 52.5 370.634 53.9C370.934 55.2 371.084 56.55 371.084 57.95C371.184 59.25 371.234 60.65 371.234 62.15C371.334 63.55 371.434 65.15 371.534 66.95C371.534 67.25 371.984 67.6 372.884 68C373.884 68.3 374.534 68.45 374.834 68.45C376.234 68.45 377.384 68.05 378.284 67.25C379.184 66.45 379.784 66.05 380.084 66.05C380.584 66.05 380.884 66.4 380.984 67.1C381.184 67.7 381.284 68.15 381.284 68.45Z" fill="black"/>
</svg>
